<svg xmlns="http://www.w3.org/2000/svg" width="1040" height="1000" viewBox="0 0 1040 1000">
<style>text{font-family:Arial,Helvetica,sans-serif;fill:#1f2933}.title{font-size:18px;font-weight:700}.axis{font-size:11px}.cell{stroke:#ffffff;stroke-width:1}.small{font-size:10px}</style>
<text x="520.0" y="24" text-anchor="middle" class="title">Reverse-Clamped Gate Input Distributions</text>
<text x="158" y="66" text-anchor="end" class="axis">AND Y=0</text>
<rect x="170.0" y="50" width="265.0" height="24" fill="#00796b" opacity="0.88"/>
<text x="302.5" y="67" text-anchor="middle" class="small" fill="#ffffff">00</text>
<rect x="435.0" y="50" width="265.0" height="24" fill="#00796b" opacity="0.88"/>
<text x="567.6" y="67" text-anchor="middle" class="small" fill="#ffffff">01</text>
<rect x="700.1" y="50" width="265.0" height="24" fill="#00796b" opacity="0.88"/>
<text x="832.6" y="67" text-anchor="middle" class="small" fill="#ffffff">10</text>
<rect x="965.1" y="50" width="4.9" height="24" fill="#b71c1c" opacity="0.88"/>
<text x="978" y="66" class="small">green=valid</text>
<text x="158" y="124" text-anchor="end" class="axis">AND Y=1</text>
<rect x="170.0" y="108" width="0.0" height="24" fill="#b71c1c" opacity="0.88"/>
<rect x="170.0" y="108" width="14.1" height="24" fill="#b71c1c" opacity="0.88"/>
<rect x="184.1" y="108" width="14.1" height="24" fill="#b71c1c" opacity="0.88"/>
<rect x="198.3" y="108" width="771.7" height="24" fill="#00796b" opacity="0.88"/>
<text x="584.1" y="125" text-anchor="middle" class="small" fill="#ffffff">11</text>
<text x="978" y="124" class="small">green=valid</text>
<text x="158" y="182" text-anchor="end" class="axis">OR Y=0</text>
<rect x="170.0" y="166" width="771.7" height="24" fill="#00796b" opacity="0.88"/>
<text x="555.9" y="183" text-anchor="middle" class="small" fill="#ffffff">00</text>
<rect x="941.7" y="166" width="14.1" height="24" fill="#b71c1c" opacity="0.88"/>
<rect x="955.9" y="166" width="14.1" height="24" fill="#b71c1c" opacity="0.88"/>
<rect x="970.0" y="166" width="0.0" height="24" fill="#b71c1c" opacity="0.88"/>
<text x="978" y="182" class="small">green=valid</text>
<text x="158" y="240" text-anchor="end" class="axis">OR Y=1</text>
<rect x="170.0" y="224" width="4.9" height="24" fill="#b71c1c" opacity="0.88"/>
<rect x="174.9" y="224" width="265.0" height="24" fill="#00796b" opacity="0.88"/>
<text x="307.4" y="241" text-anchor="middle" class="small" fill="#ffffff">01</text>
<rect x="439.9" y="224" width="265.0" height="24" fill="#00796b" opacity="0.88"/>
<text x="572.4" y="241" text-anchor="middle" class="small" fill="#ffffff">10</text>
<rect x="705.0" y="224" width="265.0" height="24" fill="#00796b" opacity="0.88"/>
<text x="837.5" y="241" text-anchor="middle" class="small" fill="#ffffff">11</text>
<text x="978" y="240" class="small">green=valid</text>
<text x="158" y="298" text-anchor="end" class="axis">NAND Y=0</text>
<rect x="170.0" y="282" width="0.0" height="24" fill="#b71c1c" opacity="0.88"/>
<rect x="170.0" y="282" width="14.1" height="24" fill="#b71c1c" opacity="0.88"/>
<rect x="184.1" y="282" width="14.1" height="24" fill="#b71c1c" opacity="0.88"/>
<rect x="198.3" y="282" width="771.7" height="24" fill="#00796b" opacity="0.88"/>
<text x="584.1" y="299" text-anchor="middle" class="small" fill="#ffffff">11</text>
<text x="978" y="298" class="small">green=valid</text>
<text x="158" y="356" text-anchor="end" class="axis">NAND Y=1</text>
<rect x="170.0" y="340" width="265.0" height="24" fill="#00796b" opacity="0.88"/>
<text x="302.5" y="357" text-anchor="middle" class="small" fill="#ffffff">00</text>
<rect x="435.0" y="340" width="265.0" height="24" fill="#00796b" opacity="0.88"/>
<text x="567.6" y="357" text-anchor="middle" class="small" fill="#ffffff">01</text>
<rect x="700.1" y="340" width="265.0" height="24" fill="#00796b" opacity="0.88"/>
<text x="832.6" y="357" text-anchor="middle" class="small" fill="#ffffff">10</text>
<rect x="965.1" y="340" width="4.9" height="24" fill="#b71c1c" opacity="0.88"/>
<text x="978" y="356" class="small">green=valid</text>
<text x="158" y="414" text-anchor="end" class="axis">NOR Y=0</text>
<rect x="170.0" y="398" width="4.9" height="24" fill="#b71c1c" opacity="0.88"/>
<rect x="174.9" y="398" width="265.0" height="24" fill="#00796b" opacity="0.88"/>
<text x="307.4" y="415" text-anchor="middle" class="small" fill="#ffffff">01</text>
<rect x="439.9" y="398" width="265.0" height="24" fill="#00796b" opacity="0.88"/>
<text x="572.4" y="415" text-anchor="middle" class="small" fill="#ffffff">10</text>
<rect x="705.0" y="398" width="265.0" height="24" fill="#00796b" opacity="0.88"/>
<text x="837.5" y="415" text-anchor="middle" class="small" fill="#ffffff">11</text>
<text x="978" y="414" class="small">green=valid</text>
<text x="158" y="472" text-anchor="end" class="axis">NOR Y=1</text>
<rect x="170.0" y="456" width="771.7" height="24" fill="#00796b" opacity="0.88"/>
<text x="555.9" y="473" text-anchor="middle" class="small" fill="#ffffff">00</text>
<rect x="941.7" y="456" width="14.1" height="24" fill="#b71c1c" opacity="0.88"/>
<rect x="955.9" y="456" width="14.1" height="24" fill="#b71c1c" opacity="0.88"/>
<rect x="970.0" y="456" width="0.0" height="24" fill="#b71c1c" opacity="0.88"/>
<text x="978" y="472" class="small">green=valid</text>
<text x="158" y="530" text-anchor="end" class="axis">HA/XOR S=0</text>
<rect x="170.0" y="514" width="314.8" height="24" fill="#00796b" opacity="0.88"/>
<text x="327.4" y="531" text-anchor="middle" class="small" fill="#ffffff">00</text>
<rect x="484.8" y="514" width="85.2" height="24" fill="#b71c1c" opacity="0.88"/>
<text x="527.4" y="531" text-anchor="middle" class="small" fill="#ffffff">01</text>
<rect x="570.0" y="514" width="85.2" height="24" fill="#b71c1c" opacity="0.88"/>
<text x="612.6" y="531" text-anchor="middle" class="small" fill="#ffffff">10</text>
<rect x="655.2" y="514" width="314.8" height="24" fill="#00796b" opacity="0.88"/>
<text x="812.6" y="531" text-anchor="middle" class="small" fill="#ffffff">11</text>
<text x="978" y="530" class="small">green=valid</text>
<text x="158" y="588" text-anchor="end" class="axis">HA/XOR S=1</text>
<rect x="170.0" y="572" width="45.0" height="24" fill="#b71c1c" opacity="0.88"/>
<text x="192.5" y="589" text-anchor="middle" class="small" fill="#ffffff">00</text>
<rect x="215.0" y="572" width="332.5" height="24" fill="#00796b" opacity="0.88"/>
<text x="381.2" y="589" text-anchor="middle" class="small" fill="#ffffff">01</text>
<rect x="547.5" y="572" width="332.5" height="24" fill="#00796b" opacity="0.88"/>
<text x="713.8" y="589" text-anchor="middle" class="small" fill="#ffffff">10</text>
<rect x="880.0" y="572" width="90.0" height="24" fill="#b71c1c" opacity="0.88"/>
<text x="925.0" y="589" text-anchor="middle" class="small" fill="#ffffff">11</text>
<text x="978" y="588" class="small">green=valid</text>
<text x="158" y="646" text-anchor="end" class="axis">XNOR S=0</text>
<rect x="170.0" y="630" width="45.0" height="24" fill="#b71c1c" opacity="0.88"/>
<text x="192.5" y="647" text-anchor="middle" class="small" fill="#ffffff">00</text>
<rect x="215.0" y="630" width="332.5" height="24" fill="#00796b" opacity="0.88"/>
<text x="381.2" y="647" text-anchor="middle" class="small" fill="#ffffff">01</text>
<rect x="547.5" y="630" width="332.5" height="24" fill="#00796b" opacity="0.88"/>
<text x="713.8" y="647" text-anchor="middle" class="small" fill="#ffffff">10</text>
<rect x="880.0" y="630" width="90.0" height="24" fill="#b71c1c" opacity="0.88"/>
<text x="925.0" y="647" text-anchor="middle" class="small" fill="#ffffff">11</text>
<text x="978" y="646" class="small">green=valid</text>
<text x="158" y="704" text-anchor="end" class="axis">XNOR S=1</text>
<rect x="170.0" y="688" width="314.8" height="24" fill="#00796b" opacity="0.88"/>
<text x="327.4" y="705" text-anchor="middle" class="small" fill="#ffffff">00</text>
<rect x="484.8" y="688" width="85.2" height="24" fill="#b71c1c" opacity="0.88"/>
<text x="527.4" y="705" text-anchor="middle" class="small" fill="#ffffff">01</text>
<rect x="570.0" y="688" width="85.2" height="24" fill="#b71c1c" opacity="0.88"/>
<text x="612.6" y="705" text-anchor="middle" class="small" fill="#ffffff">10</text>
<rect x="655.2" y="688" width="314.8" height="24" fill="#00796b" opacity="0.88"/>
<text x="812.6" y="705" text-anchor="middle" class="small" fill="#ffffff">11</text>
<text x="978" y="704" class="small">green=valid</text>
<text x="158" y="762" text-anchor="end" class="axis">FA S=0, COUT=0</text>
<rect x="170.0" y="746" width="568.6" height="24" fill="#00796b" opacity="0.88"/>
<text x="454.3" y="763" text-anchor="middle" class="small" fill="#ffffff">000</text>
<rect x="738.6" y="746" width="76.9" height="24" fill="#b71c1c" opacity="0.88"/>
<text x="777.1" y="763" text-anchor="middle" class="small" fill="#ffffff">001</text>
<rect x="815.5" y="746" width="76.9" height="24" fill="#b71c1c" opacity="0.88"/>
<text x="854.0" y="763" text-anchor="middle" class="small" fill="#ffffff">010</text>
<rect x="892.5" y="746" width="0.2" height="24" fill="#b71c1c" opacity="0.88"/>
<rect x="892.7" y="746" width="76.9" height="24" fill="#b71c1c" opacity="0.88"/>
<text x="931.1" y="763" text-anchor="middle" class="small" fill="#ffffff">100</text>
<rect x="969.6" y="746" width="0.2" height="24" fill="#b71c1c" opacity="0.88"/>
<rect x="969.8" y="746" width="0.2" height="24" fill="#b71c1c" opacity="0.88"/>
<rect x="970.0" y="746" width="0.0" height="24" fill="#b71c1c" opacity="0.88"/>
<text x="978" y="762" class="small">green=valid</text>
<text x="158" y="820" text-anchor="end" class="axis">FA S=0, COUT=1</text>
<rect x="170.0" y="804" width="0.1" height="24" fill="#b71c1c" opacity="0.88"/>
<rect x="170.1" y="804" width="30.6" height="24" fill="#b71c1c" opacity="0.88"/>
<rect x="200.6" y="804" width="30.6" height="24" fill="#b71c1c" opacity="0.88"/>
<rect x="231.2" y="804" width="225.9" height="24" fill="#00796b" opacity="0.88"/>
<text x="344.2" y="821" text-anchor="middle" class="small" fill="#ffffff">011</text>
<rect x="457.1" y="804" width="30.6" height="24" fill="#b71c1c" opacity="0.88"/>
<rect x="487.7" y="804" width="225.9" height="24" fill="#00796b" opacity="0.88"/>
<text x="600.6" y="821" text-anchor="middle" class="small" fill="#ffffff">101</text>
<rect x="713.5" y="804" width="225.9" height="24" fill="#00796b" opacity="0.88"/>
<text x="826.5" y="821" text-anchor="middle" class="small" fill="#ffffff">110</text>
<rect x="939.4" y="804" width="30.6" height="24" fill="#b71c1c" opacity="0.88"/>
<text x="978" y="820" class="small">green=valid</text>
<text x="158" y="878" text-anchor="end" class="axis">FA S=1, COUT=0</text>
<rect x="170.0" y="862" width="30.6" height="24" fill="#b71c1c" opacity="0.88"/>
<rect x="200.6" y="862" width="225.9" height="24" fill="#00796b" opacity="0.88"/>
<text x="313.5" y="879" text-anchor="middle" class="small" fill="#ffffff">001</text>
<rect x="426.5" y="862" width="225.9" height="24" fill="#00796b" opacity="0.88"/>
<text x="539.4" y="879" text-anchor="middle" class="small" fill="#ffffff">010</text>
<rect x="652.3" y="862" width="30.6" height="24" fill="#b71c1c" opacity="0.88"/>
<rect x="682.9" y="862" width="225.9" height="24" fill="#00796b" opacity="0.88"/>
<text x="795.8" y="879" text-anchor="middle" class="small" fill="#ffffff">100</text>
<rect x="908.8" y="862" width="30.6" height="24" fill="#b71c1c" opacity="0.88"/>
<rect x="939.4" y="862" width="30.6" height="24" fill="#b71c1c" opacity="0.88"/>
<rect x="969.9" y="862" width="0.1" height="24" fill="#b71c1c" opacity="0.88"/>
<text x="978" y="878" class="small">green=valid</text>
<text x="158" y="936" text-anchor="end" class="axis">FA S=1, COUT=1</text>
<rect x="170.0" y="920" width="0.0" height="24" fill="#b71c1c" opacity="0.88"/>
<rect x="170.0" y="920" width="0.2" height="24" fill="#b71c1c" opacity="0.88"/>
<rect x="170.2" y="920" width="0.2" height="24" fill="#b71c1c" opacity="0.88"/>
<rect x="170.4" y="920" width="76.9" height="24" fill="#b71c1c" opacity="0.88"/>
<text x="208.9" y="937" text-anchor="middle" class="small" fill="#ffffff">011</text>
<rect x="247.3" y="920" width="0.2" height="24" fill="#b71c1c" opacity="0.88"/>
<rect x="247.5" y="920" width="76.9" height="24" fill="#b71c1c" opacity="0.88"/>
<text x="286.0" y="937" text-anchor="middle" class="small" fill="#ffffff">101</text>
<rect x="324.5" y="920" width="76.9" height="24" fill="#b71c1c" opacity="0.88"/>
<text x="362.9" y="937" text-anchor="middle" class="small" fill="#ffffff">110</text>
<rect x="401.4" y="920" width="568.6" height="24" fill="#00796b" opacity="0.88"/>
<text x="685.7" y="937" text-anchor="middle" class="small" fill="#ffffff">111</text>
<text x="978" y="936" class="small">green=valid</text>
</svg>