<svg xmlns="http://www.w3.org/2000/svg" width="454" height="474" viewBox="0 0 454 474">
<style>text{font-family:Arial,Helvetica,sans-serif;fill:#1f2933}.title{font-size:18px;font-weight:700}.axis{font-size:11px}.cell{stroke:#ffffff;stroke-width:1}.small{font-size:10px}</style>
<text x="227.0" y="22" text-anchor="middle" class="title">4-bit Idea 2 Only Q3.4 Direct: Forward</text>
<text x="238" y="464" text-anchor="middle" class="axis">B input</text>
<text x="14" y="236" transform="rotate(-90 14,236)" text-anchor="middle" class="axis">A input</text>
<text x="58.0" y="36" text-anchor="middle" class="small">0</text>
<text x="38" y="60" text-anchor="end" class="small">0</text>
<text x="82.0" y="36" text-anchor="middle" class="small">1</text>
<text x="38" y="84" text-anchor="end" class="small">1</text>
<text x="106.0" y="36" text-anchor="middle" class="small">2</text>
<text x="38" y="108" text-anchor="end" class="small">2</text>
<text x="130.0" y="36" text-anchor="middle" class="small">3</text>
<text x="38" y="132" text-anchor="end" class="small">3</text>
<text x="154.0" y="36" text-anchor="middle" class="small">4</text>
<text x="38" y="156" text-anchor="end" class="small">4</text>
<text x="178.0" y="36" text-anchor="middle" class="small">5</text>
<text x="38" y="180" text-anchor="end" class="small">5</text>
<text x="202.0" y="36" text-anchor="middle" class="small">6</text>
<text x="38" y="204" text-anchor="end" class="small">6</text>
<text x="226.0" y="36" text-anchor="middle" class="small">7</text>
<text x="38" y="228" text-anchor="end" class="small">7</text>
<text x="250.0" y="36" text-anchor="middle" class="small">8</text>
<text x="38" y="252" text-anchor="end" class="small">8</text>
<text x="274.0" y="36" text-anchor="middle" class="small">9</text>
<text x="38" y="276" text-anchor="end" class="small">9</text>
<text x="298.0" y="36" text-anchor="middle" class="small">10</text>
<text x="38" y="300" text-anchor="end" class="small">10</text>
<text x="322.0" y="36" text-anchor="middle" class="small">11</text>
<text x="38" y="324" text-anchor="end" class="small">11</text>
<text x="346.0" y="36" text-anchor="middle" class="small">12</text>
<text x="38" y="348" text-anchor="end" class="small">12</text>
<text x="370.0" y="36" text-anchor="middle" class="small">13</text>
<text x="38" y="372" text-anchor="end" class="small">13</text>
<text x="394.0" y="36" text-anchor="middle" class="small">14</text>
<text x="38" y="396" text-anchor="end" class="small">14</text>
<text x="418.0" y="36" text-anchor="middle" class="small">15</text>
<text x="38" y="420" text-anchor="end" class="small">15</text>
<rect class="cell" x="46" y="44" width="24" height="24" fill="#00796b"/>
<rect class="cell" x="70" y="44" width="24" height="24" fill="#0a7e6d"/>
<text x="82.0" y="60" text-anchor="middle" class="small">98</text>
<rect class="cell" x="94" y="44" width="24" height="24" fill="#00796b"/>
<rect class="cell" x="118" y="44" width="24" height="24" fill="#00796b"/>
<rect class="cell" x="142" y="44" width="24" height="24" fill="#00796b"/>
<rect class="cell" x="166" y="44" width="24" height="24" fill="#00796b"/>
<rect class="cell" x="190" y="44" width="24" height="24" fill="#00796b"/>
<rect class="cell" x="214" y="44" width="24" height="24" fill="#057b6c"/>
<text x="226.0" y="60" text-anchor="middle" class="small">99</text>
<rect class="cell" x="238" y="44" width="24" height="24" fill="#00796b"/>
<rect class="cell" x="262" y="44" width="24" height="24" fill="#057b6c"/>
<text x="274.0" y="60" text-anchor="middle" class="small">99</text>
<rect class="cell" x="286" y="44" width="24" height="24" fill="#00796b"/>
<rect class="cell" x="310" y="44" width="24" height="24" fill="#00796b"/>
<rect class="cell" x="334" y="44" width="24" height="24" fill="#057b6c"/>
<text x="346.0" y="60" text-anchor="middle" class="small">99</text>
<rect class="cell" x="358" y="44" width="24" height="24" fill="#0a7e6d"/>
<text x="370.0" y="60" text-anchor="middle" class="small">98</text>
<rect class="cell" x="382" y="44" width="24" height="24" fill="#00796b"/>
<rect class="cell" x="406" y="44" width="24" height="24" fill="#00796b"/>
<rect class="cell" x="46" y="68" width="24" height="24" fill="#057b6c"/>
<text x="58.0" y="84" text-anchor="middle" class="small">99</text>
<rect class="cell" x="70" y="68" width="24" height="24" fill="#ccdc93"/>
<text x="82.0" y="84" text-anchor="middle" class="small">60</text>
<rect class="cell" x="94" y="68" width="24" height="24" fill="#00796b"/>
<rect class="cell" x="118" y="68" width="24" height="24" fill="#bb2924"/>
<text x="130.0" y="84" text-anchor="middle" class="small">3</text>
<rect class="cell" x="142" y="68" width="24" height="24" fill="#75b282"/>
<text x="154.0" y="84" text-anchor="middle" class="small">77</text>
<rect class="cell" x="166" y="68" width="24" height="24" fill="#1f8871"/>
<text x="178.0" y="84" text-anchor="middle" class="small">94</text>
<rect class="cell" x="190" y="68" width="24" height="24" fill="#057b6c"/>
<text x="202.0" y="84" text-anchor="middle" class="small">99</text>
<rect class="cell" x="214" y="68" width="24" height="24" fill="#b71c1c"/>
<text x="226.0" y="84" text-anchor="middle" class="small">0</text>
<rect class="cell" x="238" y="68" width="24" height="24" fill="#f5d78b"/>
<text x="250.0" y="84" text-anchor="middle" class="small">43</text>
<rect class="cell" x="262" y="68" width="24" height="24" fill="#75b282"/>
<text x="274.0" y="84" text-anchor="middle" class="small">77</text>
<rect class="cell" x="286" y="68" width="24" height="24" fill="#00796b"/>
<rect class="cell" x="310" y="68" width="24" height="24" fill="#b71c1c"/>
<text x="322.0" y="84" text-anchor="middle" class="small">0</text>
<rect class="cell" x="334" y="68" width="24" height="24" fill="#b71c1c"/>
<text x="346.0" y="84" text-anchor="middle" class="small">0</text>
<rect class="cell" x="358" y="68" width="24" height="24" fill="#00796b"/>
<rect class="cell" x="382" y="68" width="24" height="24" fill="#00796b"/>
<rect class="cell" x="406" y="68" width="24" height="24" fill="#b71c1c"/>
<text x="418.0" y="84" text-anchor="middle" class="small">0</text>
<rect class="cell" x="46" y="92" width="24" height="24" fill="#ba2521"/>
<text x="58.0" y="108" text-anchor="middle" class="small">2</text>
<rect class="cell" x="70" y="92" width="24" height="24" fill="#00796b"/>
<rect class="cell" x="94" y="92" width="24" height="24" fill="#479c79"/>
<text x="106.0" y="108" text-anchor="middle" class="small">86</text>
<rect class="cell" x="118" y="92" width="24" height="24" fill="#00796b"/>
<rect class="cell" x="142" y="92" width="24" height="24" fill="#00796b"/>
<rect class="cell" x="166" y="92" width="24" height="24" fill="#00796b"/>
<rect class="cell" x="190" y="92" width="24" height="24" fill="#b71c1c"/>
<text x="202.0" y="108" text-anchor="middle" class="small">0</text>
<rect class="cell" x="214" y="92" width="24" height="24" fill="#52a17b"/>
<text x="226.0" y="108" text-anchor="middle" class="small">84</text>
<rect class="cell" x="238" y="92" width="24" height="24" fill="#f1ca83"/>
<text x="250.0" y="108" text-anchor="middle" class="small">40</text>
<rect class="cell" x="262" y="92" width="24" height="24" fill="#00796b"/>
<rect class="cell" x="286" y="92" width="24" height="24" fill="#df9664"/>
<text x="298.0" y="108" text-anchor="middle" class="small">28</text>
<rect class="cell" x="310" y="92" width="24" height="24" fill="#0a7e6d"/>
<text x="322.0" y="108" text-anchor="middle" class="small">98</text>
<rect class="cell" x="334" y="92" width="24" height="24" fill="#057b6c"/>
<text x="346.0" y="108" text-anchor="middle" class="small">99</text>
<rect class="cell" x="358" y="92" width="24" height="24" fill="#00796b"/>
<rect class="cell" x="382" y="92" width="24" height="24" fill="#b71c1c"/>
<text x="394.0" y="108" text-anchor="middle" class="small">0</text>
<rect class="cell" x="406" y="92" width="24" height="24" fill="#339275"/>
<text x="418.0" y="108" text-anchor="middle" class="small">90</text>
<rect class="cell" x="46" y="116" width="24" height="24" fill="#00796b"/>
<rect class="cell" x="70" y="116" width="24" height="24" fill="#b71c1c"/>
<text x="82.0" y="132" text-anchor="middle" class="small">0</text>
<rect class="cell" x="94" y="116" width="24" height="24" fill="#0f806e"/>
<text x="106.0" y="132" text-anchor="middle" class="small">97</text>
<rect class="cell" x="118" y="116" width="24" height="24" fill="#57a37c"/>
<text x="130.0" y="132" text-anchor="middle" class="small">83</text>
<rect class="cell" x="142" y="116" width="24" height="24" fill="#057b6c"/>
<text x="154.0" y="132" text-anchor="middle" class="small">99</text>
<rect class="cell" x="166" y="116" width="24" height="24" fill="#b71c1c"/>
<text x="178.0" y="132" text-anchor="middle" class="small">0</text>
<rect class="cell" x="190" y="116" width="24" height="24" fill="#b71c1c"/>
<text x="202.0" y="132" text-anchor="middle" class="small">0</text>
<rect class="cell" x="214" y="116" width="24" height="24" fill="#d16a4a"/>
<text x="226.0" y="132" text-anchor="middle" class="small">18</text>
<rect class="cell" x="238" y="116" width="24" height="24" fill="#00796b"/>
<rect class="cell" x="262" y="116" width="24" height="24" fill="#f5d78b"/>
<text x="274.0" y="132" text-anchor="middle" class="small">43</text>
<rect class="cell" x="286" y="116" width="24" height="24" fill="#00796b"/>
<rect class="cell" x="310" y="116" width="24" height="24" fill="#2e8f74"/>
<text x="322.0" y="132" text-anchor="middle" class="small">91</text>
<rect class="cell" x="334" y="116" width="24" height="24" fill="#057b6c"/>
<text x="346.0" y="132" text-anchor="middle" class="small">99</text>
<rect class="cell" x="358" y="116" width="24" height="24" fill="#b71c1c"/>
<text x="370.0" y="132" text-anchor="middle" class="small">0</text>
<rect class="cell" x="382" y="116" width="24" height="24" fill="#a8cb8c"/>
<text x="394.0" y="132" text-anchor="middle" class="small">67</text>
<rect class="cell" x="406" y="116" width="24" height="24" fill="#429978"/>
<text x="418.0" y="132" text-anchor="middle" class="small">87</text>
<rect class="cell" x="46" y="140" width="24" height="24" fill="#1a8570"/>
<text x="58.0" y="156" text-anchor="middle" class="small">95</text>
<rect class="cell" x="70" y="140" width="24" height="24" fill="#00796b"/>
<rect class="cell" x="94" y="140" width="24" height="24" fill="#00796b"/>
<rect class="cell" x="118" y="140" width="24" height="24" fill="#057b6c"/>
<text x="130.0" y="156" text-anchor="middle" class="small">99</text>
<rect class="cell" x="142" y="140" width="24" height="24" fill="#fff59d"/>
<text x="154.0" y="156" text-anchor="middle" class="small">50</text>
<rect class="cell" x="166" y="140" width="24" height="24" fill="#00796b"/>
<rect class="cell" x="190" y="140" width="24" height="24" fill="#00796b"/>
<rect class="cell" x="214" y="140" width="24" height="24" fill="#057b6c"/>
<text x="226.0" y="156" text-anchor="middle" class="small">99</text>
<rect class="cell" x="238" y="140" width="24" height="24" fill="#00796b"/>
<rect class="cell" x="262" y="140" width="24" height="24" fill="#00796b"/>
<rect class="cell" x="286" y="140" width="24" height="24" fill="#00796b"/>
<rect class="cell" x="310" y="140" width="24" height="24" fill="#057b6c"/>
<text x="322.0" y="156" text-anchor="middle" class="small">99</text>
<rect class="cell" x="334" y="140" width="24" height="24" fill="#b71c1c"/>
<text x="346.0" y="156" text-anchor="middle" class="small">0</text>
<rect class="cell" x="358" y="140" width="24" height="24" fill="#f2ce86"/>
<text x="370.0" y="156" text-anchor="middle" class="small">41</text>
<rect class="cell" x="382" y="140" width="24" height="24" fill="#00796b"/>
<rect class="cell" x="406" y="140" width="24" height="24" fill="#00796b"/>
<rect class="cell" x="46" y="164" width="24" height="24" fill="#00796b"/>
<rect class="cell" x="70" y="164" width="24" height="24" fill="#75b282"/>
<text x="82.0" y="180" text-anchor="middle" class="small">77</text>
<rect class="cell" x="94" y="164" width="24" height="24" fill="#00796b"/>
<rect class="cell" x="118" y="164" width="24" height="24" fill="#b71c1c"/>
<text x="130.0" y="180" text-anchor="middle" class="small">0</text>
<rect class="cell" x="142" y="164" width="24" height="24" fill="#80b784"/>
<text x="154.0" y="180" text-anchor="middle" class="small">75</text>
<rect class="cell" x="166" y="164" width="24" height="24" fill="#61a87e"/>
<text x="178.0" y="180" text-anchor="middle" class="small">81</text>
<rect class="cell" x="190" y="164" width="24" height="24" fill="#00796b"/>
<rect class="cell" x="214" y="164" width="24" height="24" fill="#b71c1c"/>
<text x="226.0" y="180" text-anchor="middle" class="small">0</text>
<rect class="cell" x="238" y="164" width="24" height="24" fill="#b8d28f"/>
<text x="250.0" y="180" text-anchor="middle" class="small">64</text>
<rect class="cell" x="262" y="164" width="24" height="24" fill="#ebeb99"/>
<text x="274.0" y="180" text-anchor="middle" class="small">54</text>
<rect class="cell" x="286" y="164" width="24" height="24" fill="#00796b"/>
<rect class="cell" x="310" y="164" width="24" height="24" fill="#b71c1c"/>
<text x="322.0" y="180" text-anchor="middle" class="small">0</text>
<rect class="cell" x="334" y="164" width="24" height="24" fill="#7ab583"/>
<text x="346.0" y="180" text-anchor="middle" class="small">76</text>
<rect class="cell" x="358" y="164" width="24" height="24" fill="#c2d791"/>
<text x="370.0" y="180" text-anchor="middle" class="small">62</text>
<rect class="cell" x="382" y="164" width="24" height="24" fill="#00796b"/>
<rect class="cell" x="406" y="164" width="24" height="24" fill="#b71c1c"/>
<text x="418.0" y="180" text-anchor="middle" class="small">0</text>
<rect class="cell" x="46" y="188" width="24" height="24" fill="#0a7e6d"/>
<text x="58.0" y="204" text-anchor="middle" class="small">98</text>
<rect class="cell" x="70" y="188" width="24" height="24" fill="#00796b"/>
<rect class="cell" x="94" y="188" width="24" height="24" fill="#b71c1c"/>
<text x="106.0" y="204" text-anchor="middle" class="small">0</text>
<rect class="cell" x="118" y="188" width="24" height="24" fill="#7ab583"/>
<text x="130.0" y="204" text-anchor="middle" class="small">76</text>
<rect class="cell" x="142" y="188" width="24" height="24" fill="#00796b"/>
<rect class="cell" x="166" y="188" width="24" height="24" fill="#057b6c"/>
<text x="178.0" y="204" text-anchor="middle" class="small">99</text>
<rect class="cell" x="190" y="188" width="24" height="24" fill="#a3c88b"/>
<text x="202.0" y="204" text-anchor="middle" class="small">68</text>
<rect class="cell" x="214" y="188" width="24" height="24" fill="#00796b"/>
<rect class="cell" x="238" y="188" width="24" height="24" fill="#00796b"/>
<rect class="cell" x="262" y="188" width="24" height="24" fill="#00796b"/>
<rect class="cell" x="286" y="188" width="24" height="24" fill="#b71c1c"/>
<text x="298.0" y="204" text-anchor="middle" class="small">0</text>
<rect class="cell" x="310" y="188" width="24" height="24" fill="#b71c1c"/>
<text x="322.0" y="204" text-anchor="middle" class="small">0</text>
<rect class="cell" x="334" y="188" width="24" height="24" fill="#9ec68a"/>
<text x="346.0" y="204" text-anchor="middle" class="small">69</text>
<rect class="cell" x="358" y="188" width="24" height="24" fill="#00796b"/>
<rect class="cell" x="382" y="188" width="24" height="24" fill="#fcec98"/>
<text x="394.0" y="204" text-anchor="middle" class="small">48</text>
<rect class="cell" x="406" y="188" width="24" height="24" fill="#00796b"/>
<rect class="cell" x="46" y="212" width="24" height="24" fill="#b71c1c"/>
<text x="58.0" y="228" text-anchor="middle" class="small">0</text>
<rect class="cell" x="70" y="212" width="24" height="24" fill="#057b6c"/>
<text x="82.0" y="228" text-anchor="middle" class="small">99</text>
<rect class="cell" x="94" y="212" width="24" height="24" fill="#057b6c"/>
<text x="106.0" y="228" text-anchor="middle" class="small">99</text>
<rect class="cell" x="118" y="212" width="24" height="24" fill="#f2ce86"/>
<text x="130.0" y="228" text-anchor="middle" class="small">41</text>
<rect class="cell" x="142" y="212" width="24" height="24" fill="#94c188"/>
<text x="154.0" y="228" text-anchor="middle" class="small">71</text>
<rect class="cell" x="166" y="212" width="24" height="24" fill="#b2d08e"/>
<text x="178.0" y="228" text-anchor="middle" class="small">65</text>
<rect class="cell" x="190" y="212" width="24" height="24" fill="#3d9777"/>
<text x="202.0" y="228" text-anchor="middle" class="small">88</text>
<rect class="cell" x="214" y="212" width="24" height="24" fill="#61a87e"/>
<text x="226.0" y="228" text-anchor="middle" class="small">81</text>
<rect class="cell" x="238" y="212" width="24" height="24" fill="#b71c1c"/>
<text x="250.0" y="228" text-anchor="middle" class="small">0</text>
<rect class="cell" x="262" y="212" width="24" height="24" fill="#00796b"/>
<rect class="cell" x="286" y="212" width="24" height="24" fill="#b71c1c"/>
<text x="298.0" y="228" text-anchor="middle" class="small">0</text>
<rect class="cell" x="310" y="212" width="24" height="24" fill="#00796b"/>
<rect class="cell" x="334" y="212" width="24" height="24" fill="#057b6c"/>
<text x="346.0" y="228" text-anchor="middle" class="small">99</text>
<rect class="cell" x="358" y="212" width="24" height="24" fill="#b71c1c"/>
<text x="370.0" y="228" text-anchor="middle" class="small">0</text>
<rect class="cell" x="382" y="212" width="24" height="24" fill="#057b6c"/>
<text x="394.0" y="228" text-anchor="middle" class="small">99</text>
<rect class="cell" x="406" y="212" width="24" height="24" fill="#52a17b"/>
<text x="418.0" y="228" text-anchor="middle" class="small">84</text>
<rect class="cell" x="46" y="236" width="24" height="24" fill="#00796b"/>
<rect class="cell" x="70" y="236" width="24" height="24" fill="#057b6c"/>
<text x="82.0" y="252" text-anchor="middle" class="small">99</text>
<rect class="cell" x="94" y="236" width="24" height="24" fill="#00796b"/>
<rect class="cell" x="118" y="236" width="24" height="24" fill="#00796b"/>
<rect class="cell" x="142" y="236" width="24" height="24" fill="#057b6c"/>
<text x="154.0" y="252" text-anchor="middle" class="small">99</text>
<rect class="cell" x="166" y="236" width="24" height="24" fill="#057b6c"/>
<text x="178.0" y="252" text-anchor="middle" class="small">99</text>
<rect class="cell" x="190" y="236" width="24" height="24" fill="#00796b"/>
<rect class="cell" x="214" y="236" width="24" height="24" fill="#00796b"/>
<rect class="cell" x="238" y="236" width="24" height="24" fill="#00796b"/>
<rect class="cell" x="262" y="236" width="24" height="24" fill="#057b6c"/>
<text x="274.0" y="252" text-anchor="middle" class="small">99</text>
<rect class="cell" x="286" y="236" width="24" height="24" fill="#057b6c"/>
<text x="298.0" y="252" text-anchor="middle" class="small">99</text>
<rect class="cell" x="310" y="236" width="24" height="24" fill="#00796b"/>
<rect class="cell" x="334" y="236" width="24" height="24" fill="#00796b"/>
<rect class="cell" x="358" y="236" width="24" height="24" fill="#00796b"/>
<rect class="cell" x="382" y="236" width="24" height="24" fill="#00796b"/>
<rect class="cell" x="406" y="236" width="24" height="24" fill="#00796b"/>
<rect class="cell" x="46" y="260" width="24" height="24" fill="#00796b"/>
<rect class="cell" x="70" y="260" width="24" height="24" fill="#5ca67d"/>
<text x="82.0" y="276" text-anchor="middle" class="small">82</text>
<rect class="cell" x="94" y="260" width="24" height="24" fill="#00796b"/>
<rect class="cell" x="118" y="260" width="24" height="24" fill="#d6e195"/>
<text x="130.0" y="276" text-anchor="middle" class="small">58</text>
<rect class="cell" x="142" y="260" width="24" height="24" fill="#00796b"/>
<rect class="cell" x="166" y="260" width="24" height="24" fill="#9ec68a"/>
<text x="178.0" y="276" text-anchor="middle" class="small">69</text>
<rect class="cell" x="190" y="260" width="24" height="24" fill="#00796b"/>
<rect class="cell" x="214" y="260" width="24" height="24" fill="#b71c1c"/>
<text x="226.0" y="276" text-anchor="middle" class="small">0</text>
<rect class="cell" x="238" y="260" width="24" height="24" fill="#00796b"/>
<rect class="cell" x="262" y="260" width="24" height="24" fill="#5ca67d"/>
<text x="274.0" y="276" text-anchor="middle" class="small">82</text>
<rect class="cell" x="286" y="260" width="24" height="24" fill="#00796b"/>
<rect class="cell" x="310" y="260" width="24" height="24" fill="#b71c1c"/>
<text x="322.0" y="276" text-anchor="middle" class="small">0</text>
<rect class="cell" x="334" y="260" width="24" height="24" fill="#85b985"/>
<text x="346.0" y="276" text-anchor="middle" class="small">74</text>
<rect class="cell" x="358" y="260" width="24" height="24" fill="#db885c"/>
<text x="370.0" y="276" text-anchor="middle" class="small">25</text>
<rect class="cell" x="382" y="260" width="24" height="24" fill="#00796b"/>
<rect class="cell" x="406" y="260" width="24" height="24" fill="#b71c1c"/>
<text x="418.0" y="276" text-anchor="middle" class="small">0</text>
<rect class="cell" x="46" y="284" width="24" height="24" fill="#057b6c"/>
<text x="58.0" y="300" text-anchor="middle" class="small">99</text>
<rect class="cell" x="70" y="284" width="24" height="24" fill="#00796b"/>
<rect class="cell" x="94" y="284" width="24" height="24" fill="#5ca67d"/>
<text x="106.0" y="300" text-anchor="middle" class="small">82</text>
<rect class="cell" x="118" y="284" width="24" height="24" fill="#00796b"/>
<rect class="cell" x="142" y="284" width="24" height="24" fill="#00796b"/>
<rect class="cell" x="166" y="284" width="24" height="24" fill="#00796b"/>
<rect class="cell" x="190" y="284" width="24" height="24" fill="#52a17b"/>
<text x="202.0" y="300" text-anchor="middle" class="small">84</text>
<rect class="cell" x="214" y="284" width="24" height="24" fill="#00796b"/>
<rect class="cell" x="238" y="284" width="24" height="24" fill="#94c188"/>
<text x="250.0" y="300" text-anchor="middle" class="small">71</text>
<rect class="cell" x="262" y="284" width="24" height="24" fill="#057b6c"/>
<text x="274.0" y="300" text-anchor="middle" class="small">99</text>
<rect class="cell" x="286" y="284" width="24" height="24" fill="#6bad80"/>
<text x="298.0" y="300" text-anchor="middle" class="small">79</text>
<rect class="cell" x="310" y="284" width="24" height="24" fill="#00796b"/>
<rect class="cell" x="334" y="284" width="24" height="24" fill="#00796b"/>
<rect class="cell" x="358" y="284" width="24" height="24" fill="#00796b"/>
<rect class="cell" x="382" y="284" width="24" height="24" fill="#b71c1c"/>
<text x="394.0" y="300" text-anchor="middle" class="small">0</text>
<rect class="cell" x="406" y="284" width="24" height="24" fill="#b71c1c"/>
<text x="418.0" y="300" text-anchor="middle" class="small">0</text>
<rect class="cell" x="46" y="308" width="24" height="24" fill="#e19a67"/>
<text x="58.0" y="324" text-anchor="middle" class="small">29</text>
<rect class="cell" x="70" y="308" width="24" height="24" fill="#b71c1c"/>
<text x="82.0" y="324" text-anchor="middle" class="small">0</text>
<rect class="cell" x="94" y="308" width="24" height="24" fill="#e0e697"/>
<text x="106.0" y="324" text-anchor="middle" class="small">56</text>
<rect class="cell" x="118" y="308" width="24" height="24" fill="#bd2d26"/>
<text x="130.0" y="324" text-anchor="middle" class="small">4</text>
<rect class="cell" x="142" y="308" width="24" height="24" fill="#00796b"/>
<rect class="cell" x="166" y="308" width="24" height="24" fill="#b71c1c"/>
<text x="178.0" y="324" text-anchor="middle" class="small">0</text>
<rect class="cell" x="190" y="308" width="24" height="24" fill="#b71c1c"/>
<text x="202.0" y="324" text-anchor="middle" class="small">0</text>
<rect class="cell" x="214" y="308" width="24" height="24" fill="#b71c1c"/>
<text x="226.0" y="324" text-anchor="middle" class="small">0</text>
<rect class="cell" x="238" y="308" width="24" height="24" fill="#b71c1c"/>
<text x="250.0" y="324" text-anchor="middle" class="small">0</text>
<rect class="cell" x="262" y="308" width="24" height="24" fill="#e5e998"/>
<text x="274.0" y="324" text-anchor="middle" class="small">55</text>
<rect class="cell" x="286" y="308" width="24" height="24" fill="#b71c1c"/>
<text x="298.0" y="324" text-anchor="middle" class="small">0</text>
<rect class="cell" x="310" y="308" width="24" height="24" fill="#00796b"/>
<rect class="cell" x="334" y="308" width="24" height="24" fill="#b71c1c"/>
<text x="346.0" y="324" text-anchor="middle" class="small">0</text>
<rect class="cell" x="358" y="308" width="24" height="24" fill="#0f806e"/>
<text x="370.0" y="324" text-anchor="middle" class="small">97</text>
<rect class="cell" x="382" y="308" width="24" height="24" fill="#389476"/>
<text x="394.0" y="324" text-anchor="middle" class="small">89</text>
<rect class="cell" x="406" y="308" width="24" height="24" fill="#d47350"/>
<text x="418.0" y="324" text-anchor="middle" class="small">20</text>
<rect class="cell" x="46" y="332" width="24" height="24" fill="#99c389"/>
<text x="58.0" y="348" text-anchor="middle" class="small">70</text>
<rect class="cell" x="70" y="332" width="24" height="24" fill="#0a7e6d"/>
<text x="82.0" y="348" text-anchor="middle" class="small">98</text>
<rect class="cell" x="94" y="332" width="24" height="24" fill="#0a7e6d"/>
<text x="106.0" y="348" text-anchor="middle" class="small">98</text>
<rect class="cell" x="118" y="332" width="24" height="24" fill="#00796b"/>
<rect class="cell" x="142" y="332" width="24" height="24" fill="#f3d288"/>
<text x="154.0" y="348" text-anchor="middle" class="small">42</text>
<rect class="cell" x="166" y="332" width="24" height="24" fill="#00796b"/>
<rect class="cell" x="190" y="332" width="24" height="24" fill="#00796b"/>
<rect class="cell" x="214" y="332" width="24" height="24" fill="#057b6c"/>
<text x="226.0" y="348" text-anchor="middle" class="small">99</text>
<rect class="cell" x="238" y="332" width="24" height="24" fill="#3d9777"/>
<text x="250.0" y="348" text-anchor="middle" class="small">88</text>
<rect class="cell" x="262" y="332" width="24" height="24" fill="#057b6c"/>
<text x="274.0" y="348" text-anchor="middle" class="small">99</text>
<rect class="cell" x="286" y="332" width="24" height="24" fill="#057b6c"/>
<text x="298.0" y="348" text-anchor="middle" class="small">99</text>
<rect class="cell" x="310" y="332" width="24" height="24" fill="#057b6c"/>
<text x="322.0" y="348" text-anchor="middle" class="small">99</text>
<rect class="cell" x="334" y="332" width="24" height="24" fill="#d1df94"/>
<text x="346.0" y="348" text-anchor="middle" class="small">59</text>
<rect class="cell" x="358" y="332" width="24" height="24" fill="#00796b"/>
<rect class="cell" x="382" y="332" width="24" height="24" fill="#00796b"/>
<rect class="cell" x="406" y="332" width="24" height="24" fill="#00796b"/>
<rect class="cell" x="46" y="356" width="24" height="24" fill="#479c79"/>
<text x="58.0" y="372" text-anchor="middle" class="small">86</text>
<rect class="cell" x="70" y="356" width="24" height="24" fill="#99c389"/>
<text x="82.0" y="372" text-anchor="middle" class="small">70</text>
<rect class="cell" x="94" y="356" width="24" height="24" fill="#057b6c"/>
<text x="106.0" y="372" text-anchor="middle" class="small">99</text>
<rect class="cell" x="118" y="356" width="24" height="24" fill="#b71c1c"/>
<text x="130.0" y="372" text-anchor="middle" class="small">0</text>
<rect class="cell" x="142" y="356" width="24" height="24" fill="#1a8570"/>
<text x="154.0" y="372" text-anchor="middle" class="small">95</text>
<rect class="cell" x="166" y="356" width="24" height="24" fill="#cd5d43"/>
<text x="178.0" y="372" text-anchor="middle" class="small">15</text>
<rect class="cell" x="190" y="356" width="24" height="24" fill="#00796b"/>
<rect class="cell" x="214" y="356" width="24" height="24" fill="#b71c1c"/>
<text x="226.0" y="372" text-anchor="middle" class="small">0</text>
<rect class="cell" x="238" y="356" width="24" height="24" fill="#00796b"/>
<rect class="cell" x="262" y="356" width="24" height="24" fill="#389476"/>
<text x="274.0" y="372" text-anchor="middle" class="small">89</text>
<rect class="cell" x="286" y="356" width="24" height="24" fill="#00796b"/>
<rect class="cell" x="310" y="356" width="24" height="24" fill="#b71c1c"/>
<text x="322.0" y="372" text-anchor="middle" class="small">0</text>
<rect class="cell" x="334" y="356" width="24" height="24" fill="#d57752"/>
<text x="346.0" y="372" text-anchor="middle" class="small">21</text>
<rect class="cell" x="358" y="356" width="24" height="24" fill="#389476"/>
<text x="370.0" y="372" text-anchor="middle" class="small">89</text>
<rect class="cell" x="382" y="356" width="24" height="24" fill="#00796b"/>
<rect class="cell" x="406" y="356" width="24" height="24" fill="#a3c88b"/>
<text x="418.0" y="372" text-anchor="middle" class="small">68</text>
<rect class="cell" x="46" y="380" width="24" height="24" fill="#b71c1c"/>
<text x="58.0" y="396" text-anchor="middle" class="small">0</text>
<rect class="cell" x="70" y="380" width="24" height="24" fill="#f1ca83"/>
<text x="82.0" y="396" text-anchor="middle" class="small">40</text>
<rect class="cell" x="94" y="380" width="24" height="24" fill="#b71c1c"/>
<text x="106.0" y="396" text-anchor="middle" class="small">0</text>
<rect class="cell" x="118" y="380" width="24" height="24" fill="#ce6145"/>
<text x="130.0" y="396" text-anchor="middle" class="small">16</text>
<rect class="cell" x="142" y="380" width="24" height="24" fill="#00796b"/>
<rect class="cell" x="166" y="380" width="24" height="24" fill="#00796b"/>
<rect class="cell" x="190" y="380" width="24" height="24" fill="#ecbd7b"/>
<text x="202.0" y="396" text-anchor="middle" class="small">37</text>
<rect class="cell" x="214" y="380" width="24" height="24" fill="#00796b"/>
<rect class="cell" x="238" y="380" width="24" height="24" fill="#00796b"/>
<rect class="cell" x="262" y="380" width="24" height="24" fill="#057b6c"/>
<text x="274.0" y="396" text-anchor="middle" class="small">99</text>
<rect class="cell" x="286" y="380" width="24" height="24" fill="#b71c1c"/>
<text x="298.0" y="396" text-anchor="middle" class="small">0</text>
<rect class="cell" x="310" y="380" width="24" height="24" fill="#b71c1c"/>
<text x="322.0" y="396" text-anchor="middle" class="small">0</text>
<rect class="cell" x="334" y="380" width="24" height="24" fill="#e4a36c"/>
<text x="346.0" y="396" text-anchor="middle" class="small">31</text>
<rect class="cell" x="358" y="380" width="24" height="24" fill="#0a7e6d"/>
<text x="370.0" y="396" text-anchor="middle" class="small">98</text>
<rect class="cell" x="382" y="380" width="24" height="24" fill="#4c9e7a"/>
<text x="394.0" y="396" text-anchor="middle" class="small">85</text>
<rect class="cell" x="406" y="380" width="24" height="24" fill="#057b6c"/>
<text x="418.0" y="396" text-anchor="middle" class="small">99</text>
<rect class="cell" x="46" y="404" width="24" height="24" fill="#b71c1c"/>
<text x="58.0" y="420" text-anchor="middle" class="small">0</text>
<rect class="cell" x="70" y="404" width="24" height="24" fill="#00796b"/>
<rect class="cell" x="94" y="404" width="24" height="24" fill="#ebb879"/>
<text x="106.0" y="420" text-anchor="middle" class="small">36</text>
<rect class="cell" x="118" y="404" width="24" height="24" fill="#75b282"/>
<text x="130.0" y="420" text-anchor="middle" class="small">77</text>
<rect class="cell" x="142" y="404" width="24" height="24" fill="#b71c1c"/>
<text x="154.0" y="420" text-anchor="middle" class="small">0</text>
<rect class="cell" x="166" y="404" width="24" height="24" fill="#00796b"/>
<rect class="cell" x="190" y="404" width="24" height="24" fill="#f0ee9a"/>
<text x="202.0" y="420" text-anchor="middle" class="small">53</text>
<rect class="cell" x="214" y="404" width="24" height="24" fill="#ebeb99"/>
<text x="226.0" y="420" text-anchor="middle" class="small">54</text>
<rect class="cell" x="238" y="404" width="24" height="24" fill="#b71c1c"/>
<text x="250.0" y="420" text-anchor="middle" class="small">0</text>
<rect class="cell" x="262" y="404" width="24" height="24" fill="#00796b"/>
<rect class="cell" x="286" y="404" width="24" height="24" fill="#00796b"/>
<rect class="cell" x="310" y="404" width="24" height="24" fill="#e0e697"/>
<text x="322.0" y="420" text-anchor="middle" class="small">56</text>
<rect class="cell" x="334" y="404" width="24" height="24" fill="#00796b"/>
<rect class="cell" x="358" y="404" width="24" height="24" fill="#b8d28f"/>
<text x="370.0" y="420" text-anchor="middle" class="small">64</text>
<rect class="cell" x="382" y="404" width="24" height="24" fill="#f9e493"/>
<text x="394.0" y="420" text-anchor="middle" class="small">46</text>
<rect class="cell" x="406" y="404" width="24" height="24" fill="#d57752"/>
<text x="418.0" y="420" text-anchor="middle" class="small">21</text>
</svg>