<svg xmlns="http://www.w3.org/2000/svg" width="900" height="294" viewBox="0 0 900 294">
<style>text{font-family:Arial,Helvetica,sans-serif;fill:#1f2933}.title{font-size:18px;font-weight:700}.axis{font-size:11px}.cell{stroke:#ffffff;stroke-width:1}.small{font-size:10px}</style>
<text x="450.0" y="24" text-anchor="middle" class="title">4-bit SUM-only Inverse Valid Rate</text>
<text x="238" y="68" text-anchor="end" class="axis">baseline direct integer RCA</text>
<rect x="250" y="52" width="610" height="20" fill="#eef2f7"/>
<rect x="250" y="52" width="524.3" height="20" fill="#00796b"/>
<text x="782.3" y="68" class="axis">86.0%</text>
<text x="238" y="102" text-anchor="end" class="axis">idea 3+4 integer shadow/window</text>
<rect x="250" y="86" width="610" height="20" fill="#eef2f7"/>
<rect x="250" y="86" width="418.5" height="20" fill="#00796b"/>
<text x="676.5" y="102" class="axis">68.6%</text>
<text x="238" y="136" text-anchor="end" class="axis">idea 2+3+4 Q3.4 shadow/window</text>
<rect x="250" y="120" width="610" height="20" fill="#eef2f7"/>
<rect x="250" y="120" width="471.2" height="20" fill="#00796b"/>
<text x="729.2" y="136" class="axis">77.2%</text>
<text x="238" y="170" text-anchor="end" class="axis">idea 2+3+4 Q3.4 reverse-order shadow/window</text>
<rect x="250" y="154" width="610" height="20" fill="#eef2f7"/>
<rect x="250" y="154" width="467.9" height="20" fill="#00796b"/>
<text x="725.9" y="170" class="axis">76.7%</text>
<text x="238" y="204" text-anchor="end" class="axis">idea 4 only parallel shadow</text>
<rect x="250" y="188" width="610" height="20" fill="#eef2f7"/>
<rect x="250" y="188" width="384.0" height="20" fill="#00796b"/>
<text x="642.0" y="204" class="axis">63.0%</text>
<text x="238" y="238" text-anchor="end" class="axis">idea 2+4 Q3.4 parallel shadow</text>
<rect x="250" y="222" width="610" height="20" fill="#eef2f7"/>
<rect x="250" y="222" width="468.7" height="20" fill="#00796b"/>
<text x="726.7" y="238" class="axis">76.8%</text>
</svg>