<svg xmlns="http://www.w3.org/2000/svg" width="900" height="360" viewBox="0 0 900 360">
<style>text{font-family:Arial,Helvetica,sans-serif;fill:#1f2933}.title{font-size:18px;font-weight:700}.axis{font-size:11px}.cell{stroke:#ffffff;stroke-width:1}.small{font-size:10px}</style>
<text x="450.0" y="24" text-anchor="middle" class="title">SUM-only Validity by Target Sum</text>
<line x1="58" y1="316.0" x2="670" y2="316.0" stroke="#d8dee8"/>
<text x="50" y="320.0" text-anchor="end" class="small">0%</text>
<line x1="58" y1="247.5" x2="670" y2="247.5" stroke="#d8dee8"/>
<text x="50" y="251.5" text-anchor="end" class="small">25%</text>
<line x1="58" y1="179.0" x2="670" y2="179.0" stroke="#d8dee8"/>
<text x="50" y="183.0" text-anchor="end" class="small">50%</text>
<line x1="58" y1="110.5" x2="670" y2="110.5" stroke="#d8dee8"/>
<text x="50" y="114.5" text-anchor="end" class="small">75%</text>
<line x1="58" y1="42.0" x2="670" y2="42.0" stroke="#d8dee8"/>
<text x="50" y="46.0" text-anchor="end" class="small">100%</text>
<line x1="58.0" y1="42" x2="58.0" y2="316" stroke="#eef2f7"/>
<text x="58.0" y="334" text-anchor="middle" class="small">0</text>
<line x1="160.0" y1="42" x2="160.0" y2="316" stroke="#eef2f7"/>
<text x="160.0" y="334" text-anchor="middle" class="small">5</text>
<line x1="262.0" y1="42" x2="262.0" y2="316" stroke="#eef2f7"/>
<text x="262.0" y="334" text-anchor="middle" class="small">10</text>
<line x1="364.0" y1="42" x2="364.0" y2="316" stroke="#eef2f7"/>
<text x="364.0" y="334" text-anchor="middle" class="small">15</text>
<line x1="466.0" y1="42" x2="466.0" y2="316" stroke="#eef2f7"/>
<text x="466.0" y="334" text-anchor="middle" class="small">20</text>
<line x1="568.0" y1="42" x2="568.0" y2="316" stroke="#eef2f7"/>
<text x="568.0" y="334" text-anchor="middle" class="small">25</text>
<line x1="670.0" y1="42" x2="670.0" y2="316" stroke="#eef2f7"/>
<text x="670.0" y="334" text-anchor="middle" class="small">30</text>
<text x="364.0" y="352" text-anchor="middle" class="axis">clamped SUM</text>
<text x="14" y="179.0" transform="rotate(-90 14,179.0)" text-anchor="middle" class="axis">valid rate</text>
<polyline points="58.0,118.7 78.4,96.8 98.8,90.5 119.2,75.4 139.6,78.7 160.0,72.4 180.4,73.2 200.8,69.9 221.2,80.1 241.6,75.2 262.0,75.2 282.4,71.6 302.8,75.2 323.2,70.5 343.6,70.8 364.0,68.0 384.4,75.4 404.8,72.7 425.2,73.5 445.6,71.3 466.0,79.0 486.4,77.9 506.8,79.0 527.2,78.2 547.6,77.6 568.0,81.5 588.4,81.2 608.8,85.0 629.2,85.8 649.6,96.3 670.0,118.7" fill="none" stroke="#00796b" stroke-width="2.2"/>
<line x1="700" y1="55" x2="724" y2="55" stroke="#00796b" stroke-width="2.2"/>
<text x="732" y="60" class="small">baseline direct integer RCA</text>
<polyline points="58.0,316.0 78.4,316.0 98.8,133.8 119.2,133.8 139.6,133.8 160.0,133.8 180.4,42.5 200.8,42.5 221.2,42.3 241.6,42.3 262.0,42.5 282.4,42.5 302.8,42.5 323.2,42.5 343.6,42.5 364.0,42.5 384.4,42.3 404.8,42.3 425.2,42.8 445.6,42.8 466.0,42.8 486.4,42.8 506.8,42.5 527.2,42.5 547.6,42.3 568.0,42.3 588.4,225.3 608.8,225.3 629.2,225.3 649.6,225.3 670.0,316.0" fill="none" stroke="#b71c1c" stroke-width="2.2"/>
<line x1="700" y1="77" x2="724" y2="77" stroke="#b71c1c" stroke-width="2.2"/>
<text x="732" y="82" class="small">idea 2+3+4 Q3.4 shadow/window</text>
<polyline points="58.0,291.9 78.4,291.9 98.8,291.9 119.2,188.6 139.6,120.4 160.0,99.8 180.4,100.4 200.8,43.6 221.2,44.7 241.6,45.0 262.0,45.8 282.4,43.9 302.8,44.5 323.2,44.7 343.6,45.3 364.0,42.8 384.4,43.9 404.8,44.2 425.2,45.0 445.6,43.6 466.0,44.5 486.4,44.7 506.8,45.3 527.2,43.9 547.6,68.6 568.0,68.9 588.4,69.7 608.8,171.1 629.2,240.4 649.6,261.2 670.0,261.2" fill="none" stroke="#2f5597" stroke-width="2.2"/>
<line x1="700" y1="99" x2="724" y2="99" stroke="#2f5597" stroke-width="2.2"/>
<text x="732" y="104" class="small">idea 2+3+4 Q3.4 reverse-order shadow/window</text>
<polyline points="58.0,316.0 78.4,186.9 98.8,124.5 119.2,69.4 139.6,70.2 160.0,43.6 180.4,43.9 200.8,43.6 221.2,44.5 241.6,43.9 262.0,44.5 282.4,43.9 302.8,44.7 323.2,43.4 343.6,43.6 364.0,43.4 384.4,44.2 404.8,43.9 425.2,44.5 445.6,44.2 466.0,45.0 486.4,43.6 506.8,43.9 527.2,43.6 547.6,44.5 568.0,173.2 588.4,236.0 608.8,290.5 629.2,290.5 649.6,316.0 670.0,316.0" fill="none" stroke="#7b1fa2" stroke-width="2.2"/>
<line x1="700" y1="121" x2="724" y2="121" stroke="#7b1fa2" stroke-width="2.2"/>
<text x="732" y="126" class="small">idea 2+4 Q3.4 parallel shadow</text>
<polyline points="58.0,291.3 78.4,263.9 98.8,229.4 119.2,196.0 139.6,164.8 160.0,138.7 180.4,97.3 200.8,72.4 221.2,74.9 241.6,77.1 262.0,70.8 282.4,68.0 302.8,71.0 323.2,73.5 343.6,70.5 364.0,69.1 384.4,72.1 404.8,74.6 425.2,70.2 445.6,69.4 466.0,73.2 486.4,76.0 506.8,73.8 527.2,73.2 547.6,100.9 568.0,131.6 588.4,161.5 608.8,192.2 629.2,225.3 649.6,253.8 670.0,292.2" fill="none" stroke="#c45a00" stroke-width="2.2"/>
<line x1="700" y1="143" x2="724" y2="143" stroke="#c45a00" stroke-width="2.2"/>
<text x="732" y="148" class="small">idea 3+4 integer shadow/window</text>
<polyline points="58.0,296.8 78.4,268.9 98.8,240.7 119.2,213.5 139.6,173.0 160.0,135.7 180.4,110.0 200.8,91.0 221.2,102.0 241.6,90.8 262.0,103.1 282.4,95.4 302.8,95.7 323.2,83.4 343.6,93.8 364.0,92.7 384.4,96.0 404.8,85.8 425.2,98.4 445.6,92.7 466.0,97.3 486.4,87.8 506.8,99.8 527.2,99.8 547.6,112.1 568.0,130.8 588.4,168.6 608.8,192.4 629.2,236.3 649.6,264.8 670.0,299.6" fill="none" stroke="#455a64" stroke-width="2.2"/>
<line x1="700" y1="165" x2="724" y2="165" stroke="#455a64" stroke-width="2.2"/>
<text x="732" y="170" class="small">idea 4 only parallel shadow</text>
</svg>